<?xml version="1.0" encoding="UTF-8" standalone="no"?>
<!-- Generator: Adobe Illustrator 16.0.0, SVG Export Plug-In . SVG Version: 6.00 Build 0)  -->

<svg
   xmlns:dc="http://purl.org/dc/elements/1.1/"
   xmlns:cc="http://creativecommons.org/ns#"
   xmlns:rdf="http://www.w3.org/1999/02/22-rdf-syntax-ns#"
   xmlns:svg="http://www.w3.org/2000/svg"
   xmlns="http://www.w3.org/2000/svg"
   xmlns:sodipodi="http://sodipodi.sourceforge.net/DTD/sodipodi-0.dtd"
   xmlns:inkscape="http://www.inkscape.org/namespaces/inkscape"
   version="1.1"
   id="socialicious"
   x="0px"
   y="0px"
   width="21.05365"
   height="23.723436"
   viewBox="0 0 21.05365 23.723436"
   xml:space="preserve"
   inkscape:version="0.91 r13725"
   sodipodi:docname="quora.svg"><metadata
     id="metadata10"><rdf:RDF><cc:Work
         rdf:about=""><dc:format>image/svg+xml</dc:format><dc:type
           rdf:resource="http://purl.org/dc/dcmitype/StillImage" /><dc:title></dc:title></cc:Work></rdf:RDF></metadata><defs
     id="defs8" /><sodipodi:namedview
     pagecolor="#ffffff"
     bordercolor="#666666"
     borderopacity="1"
     objecttolerance="10"
     gridtolerance="10"
     guidetolerance="10"
     inkscape:pageopacity="0"
     inkscape:pageshadow="2"
     inkscape:window-width="884"
     inkscape:window-height="665"
     id="namedview6"
     showgrid="false"
     inkscape:zoom="2.36"
     inkscape:cx="-27.699584"
     inkscape:cy="20.56399"
     inkscape:window-x="0"
     inkscape:window-y="27"
     inkscape:window-maximized="0"
     inkscape:current-layer="socialicious"
     fit-margin-top="0"
     fit-margin-left="0"
     fit-margin-right="0"
     fit-margin-bottom="0"
     showborder="true" /><style
     type="text/css"
     id="style3">

	.st0{fill:#464342;}
	.st1{fill:#E04B26;}
	.st2{fill:#E74B24;}
	.st3{fill:#E94C88;}
	.st4{fill:#1AB6EA;}
	.st5{fill:#EA2429;}
	.st6{fill:#EC1E82;}
	.st7{fill:#B9B9BA;}
	.st8{fill:#EE3E53;}
	.st9{fill:#EE4977;}
	.st10{fill:#5496D0;}
	.st11{fill:#BBBBBB;}
	.st12{fill:#BCBCBC;}
	.st13{fill:#F16722;}
	.st14{fill:#5A471C;}
	.st15{fill:url(#SVGID_1_);}
	.st16{fill:url(#SVGID_2_);}
	.st17{fill:#2AA9E0;}
	.st18{fill-rule:evenodd;clip-rule:evenodd;fill:#BBBBBB;}
	.st19{fill-rule:evenodd;clip-rule:evenodd;fill:#BCBCBC;}
	.st20{fill:#C93C27;}
	.st21{fill:#638BB0;}
	.st22{fill:#CA2027;}
	.st23{fill:#30302F;}
	.st24{fill:#34373D;}
	.st25{fill:#00405D;}
	.st26{fill:#007EE5;}
	.st27{fill:#00A8E1;}
	.st28{fill-rule:evenodd;clip-rule:evenodd;fill:#FFFFFF;}
	.st29{fill:#035795;}
	.st30{fill:#3C5A97;}
	.st31{fill:#3F64AE;}
	.st32{fill:#3F729B;}
	.st33{fill:#A42F23;}
	.st34{fill:#75C044;}
	.st35{fill:#A72723;}
	.st36{fill:#DB2726;}
	.st37{fill:#DD3333;}
	.st38{fill:url(#soundcloud_2_);}
	.st39{fill:#442D86;}
	.st40{fill:#44556B;}

</style><path
     id="quora_1_"
     class="st12"
     d="M 16.074748,19.77336 C 19.062088,17.876635 21.05365,14.509947 21.05365,10.692788 21.05365,4.789231 16.335547,0 10.526826,0 4.7181038,0 0,4.789231 0,10.692788 c 0,5.903557 4.7181038,10.692788 10.526826,10.692788 0.853525,0 1.683342,-0.09483 2.489452,-0.308217 0.99578,1.825595 2.51316,3.105886 5.761303,2.489451 l 0,-1.801889 c 0,-0.02369 -2.0864,-0.545308 -2.702833,-1.991561 z m -0.09484,-7.681737 c 0,1.77818 -0.569018,3.414105 -1.493671,4.599558 -1.161743,-1.232872 -2.963632,-2.25236 -5.28712,-2.110107 l 0,0.213382 0,1.873016 c 0,0 1.564798,0.07113 2.631704,1.896726 -0.403052,0.118545 -0.829816,0.189672 -1.256578,0.189672 -2.9636331,0 -5.381958,-2.987342 -5.381958,-6.662247 0,-0.474182 0,-2.2760707 0,-2.7502514 0,-3.6749053 2.4183249,-6.6622476 5.381958,-6.6622476 2.963632,0 5.405666,2.9873423 5.405666,6.6622476 0,0.4741807 0,2.2760694 0,2.7502514 z"
     style="fill:#ffffff"
     inkscape:export-xdpi="21.586914"
     inkscape:export-ydpi="21.586914"
     inkscape:connector-curvature="0" /></svg>