<?xml version="1.0" encoding="UTF-8" standalone="no"?>
<!-- Generator: Adobe Illustrator 16.0.0, SVG Export Plug-In . SVG Version: 6.00 Build 0)  -->

<svg
   xmlns:dc="http://purl.org/dc/elements/1.1/"
   xmlns:cc="http://creativecommons.org/ns#"
   xmlns:rdf="http://www.w3.org/1999/02/22-rdf-syntax-ns#"
   xmlns:svg="http://www.w3.org/2000/svg"
   xmlns="http://www.w3.org/2000/svg"
   xmlns:sodipodi="http://sodipodi.sourceforge.net/DTD/sodipodi-0.dtd"
   xmlns:inkscape="http://www.inkscape.org/namespaces/inkscape"
   version="1.1"
   id="socialicious"
   x="0px"
   y="0px"
   width="100px"
   height="100px"
   viewBox="0 0 100 100"
   style="enable-background:new 0 0 100 100;"
   xml:space="preserve"
   inkscape:version="0.91 r13725"
   sodipodi:docname="quora.svg"><metadata
     id="metadata10"><rdf:RDF><cc:Work
         rdf:about=""><dc:format>image/svg+xml</dc:format><dc:type
           rdf:resource="http://purl.org/dc/dcmitype/StillImage" /><dc:title /></cc:Work></rdf:RDF></metadata><defs
     id="defs8" /><sodipodi:namedview
     pagecolor="#ffffff"
     bordercolor="#666666"
     borderopacity="1"
     objecttolerance="10"
     gridtolerance="10"
     guidetolerance="10"
     inkscape:pageopacity="0"
     inkscape:pageshadow="2"
     inkscape:window-width="884"
     inkscape:window-height="665"
     id="namedview6"
     showgrid="false"
     inkscape:zoom="2.36"
     inkscape:cx="62.905482"
     inkscape:cy="42.532784"
     inkscape:window-x="0"
     inkscape:window-y="27"
     inkscape:window-maximized="0"
     inkscape:current-layer="socialicious" /><style
     type="text/css"
     id="style3">

	.st0{fill:#464342;}
	.st1{fill:#E04B26;}
	.st2{fill:#E74B24;}
	.st3{fill:#E94C88;}
	.st4{fill:#1AB6EA;}
	.st5{fill:#EA2429;}
	.st6{fill:#EC1E82;}
	.st7{fill:#B9B9BA;}
	.st8{fill:#EE3E53;}
	.st9{fill:#EE4977;}
	.st10{fill:#5496D0;}
	.st11{fill:#BBBBBB;}
	.st12{fill:#BCBCBC;}
	.st13{fill:#F16722;}
	.st14{fill:#5A471C;}
	.st15{fill:url(#SVGID_1_);}
	.st16{fill:url(#SVGID_2_);}
	.st17{fill:#2AA9E0;}
	.st18{fill-rule:evenodd;clip-rule:evenodd;fill:#BBBBBB;}
	.st19{fill-rule:evenodd;clip-rule:evenodd;fill:#BCBCBC;}
	.st20{fill:#C93C27;}
	.st21{fill:#638BB0;}
	.st22{fill:#CA2027;}
	.st23{fill:#30302F;}
	.st24{fill:#34373D;}
	.st25{fill:#00405D;}
	.st26{fill:#007EE5;}
	.st27{fill:#00A8E1;}
	.st28{fill-rule:evenodd;clip-rule:evenodd;fill:#FFFFFF;}
	.st29{fill:#035795;}
	.st30{fill:#3C5A97;}
	.st31{fill:#3F64AE;}
	.st32{fill:#3F729B;}
	.st33{fill:#A42F23;}
	.st34{fill:#75C044;}
	.st35{fill:#A72723;}
	.st36{fill:#DB2726;}
	.st37{fill:#DD3333;}
	.st38{fill:url(#soundcloud_2_);}
	.st39{fill:#442D86;}
	.st40{fill:#44556B;}

</style><path
     id="quora_1_"
     class="st12"
     d="M 87.095088,29.010936 C 91.478034,26.228113 94.4,21.2886 94.4,15.688168 94.4,7.0266296 87.477727,0 78.955328,0 c -8.522397,0 -15.44467,7.0266296 -15.44467,15.688168 0,8.661538 6.922273,15.688167 15.44467,15.688167 1.252271,0 2.469756,-0.139137 3.652458,-0.452207 1.460982,2.678466 3.687241,4.556871 8.452827,3.652454 l 0,-2.643683 c 0,-0.03477 -3.061108,-0.800061 -3.965525,-2.921963 z M 86.955952,17.740501 c 0,2.608896 -0.834847,5.009081 -2.191474,6.748346 -1.704477,-1.808835 -4.348159,-3.304603 -7.757118,-3.095892 l 0,0.313069 0,2.748038 c 0,0 2.295829,0.104352 3.861165,2.782825 -0.591348,0.173927 -1.217485,0.278282 -1.843619,0.278282 -4.348161,0 -7.896261,-4.382948 -7.896261,-9.774668 0,-0.695707 0,-3.339389 0,-4.035095 0,-5.3917205 3.5481,-9.7746678 7.896261,-9.7746678 4.348161,0 7.931049,4.3829473 7.931049,9.7746678 0,0.695706 0,3.339388 0,4.035095 z"
     style="fill:#ffffff"
     inkscape:export-xdpi="21.586914"
     inkscape:export-ydpi="21.586914"
     inkscape:connector-curvature="0" /></svg>